<svg width="24" height="24" viewBox="0 0 24 24" fill="none" xmlns="http://www.w3.org/2000/svg">
<g clip-path="url(#clip0_584_1678)">
<rect width="24" height="24" rx="12" fill="white"/>
<path d="M11.1349 0.0282886C11.0441 0.0378511 10.7608 0.0714136 10.5109 0.100851C9.50325 0.215789 8.36062 0.518414 7.35787 0.940851C3.72881 2.45716 0.9975 5.78398 0.243937 9.59979C0.0665625 10.5073 0.0234375 10.9532 0.0234375 11.9998C0.0234375 13.3488 0.1575 14.2798 0.512813 15.4562C1.67438 19.3055 4.69837 22.3247 8.55769 23.4907C9.71925 23.8415 10.6552 23.9756 11.9992 23.9756C13.3483 23.9756 14.2793 23.8415 15.4556 23.4862C19.305 22.3247 22.3241 19.3007 23.4902 15.4414C23.841 14.2798 23.9751 13.3438 23.9751 11.9998C23.9751 11.4285 23.9466 10.776 23.9128 10.5356C23.5239 7.76135 22.3813 5.42848 20.4763 3.52273C18.5749 1.6316 16.2518 0.484664 13.5349 0.0957886C13.1606 0.0429136 11.4277 -0.00546136 11.1349 0.0282886ZM7.22306 7.58829C7.47806 7.66516 7.59731 7.73716 7.77019 7.90985C8.10637 8.2511 8.18325 8.43804 8.18325 8.95141C8.18325 9.33598 8.16862 9.40779 8.05369 9.60916C7.83244 9.98341 7.31906 10.3292 6.96394 10.3385C6.714 10.3438 6.72431 10.2332 6.99769 9.94535C7.36237 9.56604 7.41506 9.42223 7.41506 8.85541C7.41056 8.30848 7.34325 8.12154 7.089 7.96779C6.8775 7.83823 6.64744 7.84779 6.31125 8.00585C5.4375 8.42398 4.49194 9.81579 4.12275 11.2417C3.63281 13.1424 4.5015 14.6636 5.93194 14.4043C6.34931 14.3274 7.13662 13.9247 7.47806 13.6074C7.76081 13.3489 7.76081 13.3438 7.78931 13.0224C7.85231 12.3499 8.32687 11.6782 8.96119 11.3662C9.25331 11.2218 9.32587 11.208 9.71925 11.208C10.0935 11.208 10.1799 11.2271 10.3624 11.3274C10.9431 11.6593 10.8231 12.4318 10.1946 12.4318C9.82987 12.4318 9.64237 12.2443 9.90675 12.1442C10.1661 12.0482 10.0693 11.6878 9.76762 11.6064C9.41231 11.5149 9.00881 11.7551 8.75456 12.2158C8.44706 12.7727 8.433 13.4353 8.72531 13.7372C9.00881 14.0396 9.36394 13.8002 9.63787 13.113C9.7815 12.7629 9.98794 12.5754 10.2283 12.5754C10.4392 12.5754 10.4781 12.7052 10.3864 13.0991C10.2517 13.7085 10.3433 13.8667 10.7226 13.68C10.8471 13.622 11.0537 13.4882 11.1782 13.3922L11.4133 13.2047L11.5723 12.374C11.7452 11.4431 11.8117 11.3179 12.1671 11.2513C12.5083 11.1883 12.5852 11.3567 12.4599 11.8892L12.3924 12.1873L12.6424 11.9323C13.2326 11.3274 13.9577 11.03 14.2074 11.2798C14.3415 11.4139 14.3269 11.5822 14.1351 12.177C14.0441 12.4605 13.9189 12.9073 13.8619 13.1614C13.7754 13.5452 13.7702 13.6367 13.8188 13.6991C13.9725 13.8814 14.4426 13.6939 14.8601 13.2859L15.1048 13.0464L15.1341 12.5132C15.1626 11.8987 15.2197 11.6782 15.3831 11.4812C15.5368 11.2989 15.8152 11.1649 15.9639 11.2029C16.1126 11.2417 16.1126 11.3854 15.9786 11.808C15.7911 12.3887 15.8107 13.7276 16.0027 13.7276C16.0796 13.7276 16.4728 13.3151 16.7228 12.9695L16.9095 12.7145L16.7608 12.5615C16.5015 12.2878 16.4393 12.1104 16.4393 11.6636C16.4393 11.3377 16.4634 11.2175 16.5446 11.0585C16.6794 10.8095 16.8904 10.6273 17.1401 10.5547C17.4038 10.4734 17.7304 10.6074 17.8644 10.8476C17.9993 11.0923 17.9657 11.6394 17.7926 12.0144L17.6681 12.2876H17.8359C18.0666 12.2876 18.1575 12.2304 18.5706 11.8415C18.7866 11.6351 19.0363 11.4572 19.2231 11.3707C19.9577 11.0257 20.8221 11.2029 20.9655 11.7309C21.0855 12.1535 20.8221 12.4509 20.3606 12.4172C20.0295 12.3932 19.9672 12.3065 20.1592 12.1442C20.5048 11.8554 20.1593 11.4864 19.6648 11.6205C19.3959 11.6929 19.0935 11.9947 18.9354 12.3455C18.6182 13.0464 18.7866 13.8718 19.2422 13.8718C19.4246 13.8718 19.7468 13.5116 19.8713 13.1614C20.0199 12.7579 20.3319 12.5038 20.5671 12.5951C20.6968 12.6429 20.7064 12.7725 20.625 13.1805C20.5335 13.6273 20.5194 14.0449 20.5912 14.2367C20.6199 14.3083 20.7064 14.4431 20.7883 14.534C20.9413 14.7067 20.9466 14.7692 20.8168 14.8511C20.7546 14.8942 20.6724 14.8753 20.4713 14.7649C20.1928 14.6205 19.9526 14.3612 19.8662 14.1165L19.8135 13.9729L19.6215 14.1165C19.5109 14.1934 19.3382 14.2798 19.2377 14.3083C18.8393 14.4138 18.3493 14.1407 18.1194 13.68C18.0278 13.5019 17.9993 12.9791 18.0666 12.7775C18.1048 12.6669 18.1048 12.6669 17.9509 12.7438C17.8697 12.7871 17.6968 12.8347 17.5627 12.8494C17.3415 12.8737 17.3078 12.8977 17.0874 13.176C16.7754 13.5641 16.2231 14.088 15.9975 14.1986C15.5179 14.438 15.3596 14.3707 15.2344 13.8761L15.1479 13.5452L14.9413 13.7276C14.6777 13.9582 14.1497 14.2367 13.8471 14.304C13.5593 14.3662 13.2518 14.2747 13.1271 14.0827C12.9405 13.7949 13.0027 13.1855 13.2999 12.3645C13.5204 11.7551 13.3624 11.7457 12.8057 12.3264C12.3926 12.7629 12.2153 13.0749 12.1003 13.5598C11.9803 14.0638 11.8359 14.246 11.5101 14.3229C11.313 14.3662 11.2213 14.246 11.2603 13.9824L11.2888 13.7707L11.1064 13.896C10.8471 14.0734 10.5204 14.2367 10.2949 14.2989C10.0693 14.3612 9.77194 14.2944 9.70012 14.1692C9.57056 13.9489 9.57056 13.9489 9.36919 14.1069C8.93194 14.4622 8.30794 14.3612 7.99144 13.8909L7.89019 13.7422L7.57387 14.0351C6.66131 14.8702 5.51944 15.2445 4.67438 14.9852C3.59906 14.6593 3.00431 13.7372 3.01387 12.4078C3.01837 11.0734 3.60863 9.6671 4.60256 8.62554C5.16431 8.0396 5.69231 7.69385 6.23006 7.56429C6.61819 7.46829 6.85406 7.47316 7.22306 7.58829Z" fill="#0D49E0"/>
<path d="M16.9512 11.0015C16.8456 11.1069 16.8844 11.5295 17.0187 11.7984C17.086 11.9375 17.1578 12.0481 17.1818 12.0481C17.2009 12.0481 17.244 11.9375 17.2778 11.8027C17.3978 11.3039 17.1818 10.7707 16.9512 11.0015Z" fill="#0D49E0"/>
</g>
<defs>
<clipPath id="clip0_584_1678">
<rect width="24" height="24" rx="12" fill="white"/>
</clipPath>
</defs>
</svg>
