<svg width="17" height="16" viewBox="0 0 17 16" fill="none" xmlns="http://www.w3.org/2000/svg">
<path d="M15.1673 8.00017C15.1684 8.87827 14.9955 9.74788 14.6586 10.5588C14.3216 11.3697 13.8274 12.1057 13.2043 12.7245C12.5863 13.3413 11.8528 13.8304 11.0457 14.1637C10.2387 14.4969 9.37383 14.6679 8.50066 14.6668C4.81866 14.6668 1.83399 11.6822 1.83399 8.00017C1.83159 6.29074 2.48822 4.64618 3.66732 3.4085C4.2894 2.75199 5.03892 2.22934 5.87 1.87255C6.70108 1.51576 7.59623 1.33233 8.50066 1.3335C9.37383 1.33243 10.2387 1.50341 11.0457 1.83668C11.8528 2.16996 12.5863 2.65899 13.2043 3.27583C13.8274 3.8946 14.3216 4.63069 14.6586 5.44157C14.9955 6.25246 15.1684 7.12207 15.1673 8.00017Z" stroke="#E9DEFF" stroke-width="1.33333" stroke-linecap="round" stroke-linejoin="round"/>
<path d="M15.1681 8.00018C14.1954 8.00018 11.5121 7.63351 9.1104 8.68785C6.5014 9.83351 4.6124 11.6108 3.78906 12.7158" stroke="#E9DEFF" stroke-width="1.33333" stroke-linecap="round" stroke-linejoin="round"/>
<path d="M6 1.81836C7.04333 2.78136 9.32 5.23303 10.1667 7.66703C11.0133 10.101 11.3267 13.0937 11.52 13.9454" stroke="#E9DEFF" stroke-width="1.33333" stroke-linecap="round" stroke-linejoin="round"/>
<path d="M1.88477 7.16674C3.1441 7.24274 6.47777 7.31107 8.6111 6.40007C10.7444 5.48907 12.5801 3.8134 13.2098 3.28174M2.33343 10.5377C2.92096 11.9596 3.9804 13.1357 5.33343 13.8681" stroke="#E9DEFF" stroke-width="1.33333" stroke-linecap="round" stroke-linejoin="round"/>
<path d="M1.83399 8.00017C1.83159 6.29074 2.48822 4.64618 3.66732 3.4085C4.2894 2.75199 5.03892 2.22934 5.87 1.87255C6.70108 1.51576 7.59623 1.33233 8.50066 1.3335M11.1673 1.88817C11.9267 2.22009 12.6175 2.69069 13.2043 3.27583C13.8274 3.8946 14.3216 4.63069 14.6586 5.44157C14.9955 6.25246 15.1684 7.12207 15.1673 8.00017C15.1673 8.82084 15.019 9.60717 14.7473 10.3335M8.50066 14.6668C9.37383 14.6679 10.2387 14.4969 11.0457 14.1637C11.8528 13.8304 12.5863 13.3413 13.2043 12.7245" stroke="#E9DEFF" stroke-width="1.33333" stroke-linecap="round" stroke-linejoin="round"/>
</svg>
