<svg width="17" height="16" viewBox="0 0 17 16" fill="none" xmlns="http://www.w3.org/2000/svg">
<path d="M7.16732 13.7122C4.88132 14.4835 2.97665 13.7122 1.83398 11.3335" stroke="#E9DEFF" stroke-width="1.5" stroke-linecap="round" stroke-linejoin="round"/>
<path d="M7.16732 14.6667V12.5054C7.16732 12.1067 7.28998 11.76 7.48732 11.4467C7.62332 11.232 7.52998 10.9267 7.28532 10.86C5.25665 10.3014 3.83398 9.40468 3.83398 6.43002C3.83398 5.65669 4.08732 4.93002 4.53265 4.29669C4.64332 4.13935 4.69932 4.06068 4.71265 3.99002C4.72598 3.91802 4.70265 3.82535 4.65598 3.63868C4.46732 2.88135 4.47998 2.07669 4.76265 1.35202C4.76265 1.35202 5.34732 1.16068 6.67865 1.99202C6.98265 2.18202 7.13465 2.27735 7.26865 2.29868C7.40265 2.32002 7.58132 2.27535 7.93865 2.18602C8.44956 2.05935 8.97428 1.99687 9.50065 2.00002C10.027 1.99777 10.5516 2.06047 11.0627 2.18668C11.42 2.27602 11.5993 2.32002 11.7333 2.29935C11.8667 2.27802 12.0187 2.18268 12.3227 1.99269C13.654 1.16135 14.2387 1.35269 14.2387 1.35269C14.5213 2.07735 14.534 2.88202 14.3453 3.63935C14.2987 3.82602 14.276 3.91935 14.2893 3.99002C14.3027 4.06068 14.358 4.14002 14.4687 4.29735C14.914 4.93068 15.1673 5.65735 15.1673 6.43068C15.1673 9.40535 13.7447 10.302 11.716 10.8594C11.4713 10.9267 11.378 11.232 11.514 11.446C11.7113 11.7594 11.834 12.106 11.834 12.5054V14.6667" stroke="#E9DEFF" stroke-width="1.5" stroke-linecap="round" stroke-linejoin="round"/>
</svg>
