<svg width="545" height="478" viewBox="0 0 545 478" fill="none" xmlns="http://www.w3.org/2000/svg">
<g clip-path="url(#clip0_549_7200)">
<rect width="35.5655" height="35.5655" stroke="#1E0044" stroke-width="0.711309"/>
<rect x="35.5664" width="35.5655" height="35.5655" stroke="#1E0044" stroke-width="0.711309"/>
<rect x="71.1309" width="35.5655" height="35.5655" stroke="#1E0044" stroke-width="0.711309"/>
<rect x="106.697" width="35.5655" height="35.5655" stroke="#1E0044" stroke-width="0.711309"/>
<rect x="142.262" width="35.5655" height="35.5655" stroke="#1E0044" stroke-width="0.711309"/>
<rect x="177.828" width="35.5655" height="35.5655" stroke="#1E0044" stroke-width="0.711309"/>
<rect x="213.393" width="35.5655" height="35.5655" stroke="#1E0044" stroke-width="0.711309"/>
<rect x="248.959" width="35.5655" height="35.5655" stroke="#1E0044" stroke-width="0.711309"/>
<rect x="284.523" width="35.5655" height="35.5655" stroke="#1E0044" stroke-width="0.711309"/>
<rect x="320.09" width="35.5655" height="35.5655" stroke="#1E0044" stroke-width="0.711309"/>
<rect x="355.654" width="35.5655" height="35.5655" stroke="#1E0044" stroke-width="0.711309"/>
<rect x="391.221" width="35.5655" height="35.5655" stroke="#1E0044" stroke-width="0.711309"/>
<rect x="426.785" width="35.5655" height="35.5655" stroke="#1E0044" stroke-width="0.711309"/>
<rect x="462.352" width="35.5655" height="35.5655" stroke="#1E0044" stroke-width="0.711309"/>
<rect x="497.916" width="35.5655" height="35.5655" stroke="#1E0044" stroke-width="0.711309"/>
<rect x="533.482" width="35.5655" height="35.5655" stroke="#1E0044" stroke-width="0.711309"/>
<rect y="35.5654" width="35.5655" height="35.5655" stroke="#1E0044" stroke-width="0.711309"/>
<rect x="35.5664" y="35.5654" width="35.5655" height="35.5655" stroke="#1E0044" stroke-width="0.711309"/>
<rect x="71.1309" y="35.5654" width="35.5655" height="35.5655" fill="#1E0044" stroke="#1E0044" stroke-width="0.711309"/>
<rect x="106.697" y="35.5654" width="35.5655" height="35.5655" stroke="#1E0044" stroke-width="0.711309"/>
<rect x="142.262" y="35.5654" width="35.5655" height="35.5655" stroke="#1E0044" stroke-width="0.711309"/>
<rect x="177.828" y="35.5654" width="35.5655" height="35.5655" stroke="#1E0044" stroke-width="0.711309"/>
<rect x="213.393" y="35.5654" width="35.5655" height="35.5655" stroke="#1E0044" stroke-width="0.711309"/>
<rect x="248.959" y="35.5654" width="35.5655" height="35.5655" stroke="#1E0044" stroke-width="0.711309"/>
<rect x="284.523" y="35.5654" width="35.5655" height="35.5655" stroke="#1E0044" stroke-width="0.711309"/>
<rect x="320.09" y="35.5654" width="35.5655" height="35.5655" fill="#1E0044" stroke="#1E0044" stroke-width="0.711309"/>
<rect x="355.654" y="35.5654" width="35.5655" height="35.5655" stroke="#1E0044" stroke-width="0.711309"/>
<rect x="391.221" y="35.5654" width="35.5655" height="35.5655" stroke="#1E0044" stroke-width="0.711309"/>
<rect x="426.785" y="35.5654" width="35.5655" height="35.5655" stroke="#1E0044" stroke-width="0.711309"/>
<rect x="462.352" y="35.5654" width="35.5655" height="35.5655" stroke="#1E0044" stroke-width="0.711309"/>
<rect x="497.916" y="35.5654" width="35.5655" height="35.5655" stroke="#1E0044" stroke-width="0.711309"/>
<rect x="533.482" y="35.5654" width="35.5655" height="35.5655" stroke="#1E0044" stroke-width="0.711309"/>
<rect y="71.1309" width="35.5655" height="35.5655" stroke="#1E0044" stroke-width="0.711309"/>
<rect x="35.5664" y="71.1309" width="35.5655" height="35.5655" stroke="#1E0044" stroke-width="0.711309"/>
<rect x="71.1309" y="71.1309" width="35.5655" height="35.5655" stroke="#1E0044" stroke-width="0.711309"/>
<rect x="106.697" y="71.1309" width="35.5655" height="35.5655" stroke="#1E0044" stroke-width="0.711309"/>
<rect x="142.262" y="71.1309" width="35.5655" height="35.5655" stroke="#1E0044" stroke-width="0.711309"/>
<rect x="177.828" y="71.1309" width="35.5655" height="35.5655" stroke="#1E0044" stroke-width="0.711309"/>
<rect x="213.393" y="71.1309" width="35.5655" height="35.5655" stroke="#1E0044" stroke-width="0.711309"/>
<rect x="248.959" y="71.1309" width="35.5655" height="35.5655" stroke="#1E0044" stroke-width="0.711309"/>
<rect x="284.523" y="71.1309" width="35.5655" height="35.5655" stroke="#1E0044" stroke-width="0.711309"/>
<rect x="320.09" y="71.1309" width="35.5655" height="35.5655" stroke="#1E0044" stroke-width="0.711309"/>
<rect x="355.654" y="71.1309" width="35.5655" height="35.5655" stroke="#1E0044" stroke-width="0.711309"/>
<rect x="391.221" y="71.1309" width="35.5655" height="35.5655" stroke="#1E0044" stroke-width="0.711309"/>
<rect x="426.785" y="71.1309" width="35.5655" height="35.5655" stroke="#1E0044" stroke-width="0.711309"/>
<rect x="462.352" y="71.1309" width="35.5655" height="35.5655" stroke="#1E0044" stroke-width="0.711309"/>
<rect x="497.916" y="71.1309" width="35.5655" height="35.5655" stroke="#1E0044" stroke-width="0.711309"/>
<rect x="533.482" y="71.1309" width="35.5655" height="35.5655" stroke="#1E0044" stroke-width="0.711309"/>
<rect y="106.697" width="35.5655" height="35.5655" stroke="#1E0044" stroke-width="0.711309"/>
<rect x="35.5664" y="106.697" width="35.5655" height="35.5655" stroke="#1E0044" stroke-width="0.711309"/>
<rect x="71.1309" y="106.697" width="35.5655" height="35.5655" stroke="#1E0044" stroke-width="0.711309"/>
<rect x="106.697" y="106.697" width="35.5655" height="35.5655" stroke="#1E0044" stroke-width="0.711309"/>
<rect x="142.262" y="106.697" width="35.5655" height="35.5655" stroke="#1E0044" stroke-width="0.711309"/>
<rect x="177.828" y="106.697" width="35.5655" height="35.5655" stroke="#1E0044" stroke-width="0.711309"/>
<rect x="213.393" y="106.697" width="35.5655" height="35.5655" stroke="#1E0044" stroke-width="0.711309"/>
<rect x="248.959" y="106.697" width="35.5655" height="35.5655" stroke="#1E0044" stroke-width="0.711309"/>
<rect x="284.523" y="106.697" width="35.5655" height="35.5655" stroke="#1E0044" stroke-width="0.711309"/>
<rect x="320.09" y="106.697" width="35.5655" height="35.5655" stroke="#1E0044" stroke-width="0.711309"/>
<rect x="355.654" y="106.697" width="35.5655" height="35.5655" stroke="#1E0044" stroke-width="0.711309"/>
<rect x="391.221" y="106.697" width="35.5655" height="35.5655" stroke="#1E0044" stroke-width="0.711309"/>
<rect x="426.785" y="106.697" width="35.5655" height="35.5655" stroke="#1E0044" stroke-width="0.711309"/>
<rect x="462.352" y="106.697" width="35.5655" height="35.5655" stroke="#1E0044" stroke-width="0.711309"/>
<rect x="497.916" y="106.697" width="35.5655" height="35.5655" stroke="#1E0044" stroke-width="0.711309"/>
<rect x="533.482" y="106.697" width="35.5655" height="35.5655" stroke="#1E0044" stroke-width="0.711309"/>
<rect y="142.262" width="35.5655" height="35.5655" stroke="#1E0044" stroke-width="0.711309"/>
<rect x="35.5664" y="142.262" width="35.5655" height="35.5655" stroke="#1E0044" stroke-width="0.711309"/>
<rect x="71.1309" y="142.262" width="35.5655" height="35.5655" stroke="#1E0044" stroke-width="0.711309"/>
<rect x="106.697" y="142.262" width="35.5655" height="35.5655" fill="#1E0044" stroke="#1E0044" stroke-width="0.711309"/>
<rect x="142.262" y="142.262" width="35.5655" height="35.5655" stroke="#1E0044" stroke-width="0.711309"/>
<rect x="177.828" y="142.262" width="35.5655" height="35.5655" stroke="#1E0044" stroke-width="0.711309"/>
<rect x="213.393" y="142.262" width="35.5655" height="35.5655" stroke="#1E0044" stroke-width="0.711309"/>
<rect x="248.959" y="142.262" width="35.5655" height="35.5655" stroke="#1E0044" stroke-width="0.711309"/>
<rect x="284.523" y="142.262" width="35.5655" height="35.5655" stroke="#1E0044" stroke-width="0.711309"/>
<rect x="320.09" y="142.262" width="35.5655" height="35.5655" stroke="#1E0044" stroke-width="0.711309"/>
<rect x="355.654" y="142.262" width="35.5655" height="35.5655" stroke="#1E0044" stroke-width="0.711309"/>
<rect x="391.221" y="142.262" width="35.5655" height="35.5655" stroke="#1E0044" stroke-width="0.711309"/>
<rect x="426.785" y="142.262" width="35.5655" height="35.5655" fill="#1E0044" stroke="#1E0044" stroke-width="0.711309"/>
<rect x="462.352" y="142.262" width="35.5655" height="35.5655" stroke="#1E0044" stroke-width="0.711309"/>
<rect x="497.916" y="142.262" width="35.5655" height="35.5655" stroke="#1E0044" stroke-width="0.711309"/>
<rect x="533.482" y="142.262" width="35.5655" height="35.5655" stroke="#1E0044" stroke-width="0.711309"/>
<rect y="177.828" width="35.5655" height="35.5655" stroke="#1E0044" stroke-width="0.711309"/>
<rect x="35.5664" y="177.828" width="35.5655" height="35.5655" stroke="#1E0044" stroke-width="0.711309"/>
<rect x="71.1309" y="177.828" width="35.5655" height="35.5655" stroke="#1E0044" stroke-width="0.711309"/>
<rect x="106.697" y="177.828" width="35.5655" height="35.5655" stroke="#1E0044" stroke-width="0.711309"/>
<rect x="142.262" y="177.828" width="35.5655" height="35.5655" stroke="#1E0044" stroke-width="0.711309"/>
<rect x="177.828" y="177.828" width="35.5655" height="35.5655" stroke="#1E0044" stroke-width="0.711309"/>
<rect x="213.393" y="177.828" width="35.5655" height="35.5655" stroke="#1E0044" stroke-width="0.711309"/>
<rect x="248.959" y="177.828" width="35.5655" height="35.5655" stroke="#1E0044" stroke-width="0.711309"/>
<rect x="284.523" y="177.828" width="35.5655" height="35.5655" stroke="#1E0044" stroke-width="0.711309"/>
<rect x="320.09" y="177.828" width="35.5655" height="35.5655" stroke="#1E0044" stroke-width="0.711309"/>
<rect x="355.654" y="177.828" width="35.5655" height="35.5655" stroke="#1E0044" stroke-width="0.711309"/>
<rect x="391.221" y="177.828" width="35.5655" height="35.5655" stroke="#1E0044" stroke-width="0.711309"/>
<rect x="426.785" y="177.828" width="35.5655" height="35.5655" stroke="#1E0044" stroke-width="0.711309"/>
<rect x="462.352" y="177.828" width="35.5655" height="35.5655" stroke="#1E0044" stroke-width="0.711309"/>
<rect x="497.916" y="177.828" width="35.5655" height="35.5655" stroke="#1E0044" stroke-width="0.711309"/>
<rect x="533.482" y="177.828" width="35.5655" height="35.5655" stroke="#1E0044" stroke-width="0.711309"/>
<rect y="213.393" width="35.5655" height="35.5655" stroke="#1E0044" stroke-width="0.711309"/>
<rect x="35.5664" y="213.393" width="35.5655" height="35.5655" stroke="#1E0044" stroke-width="0.711309"/>
<rect x="71.1309" y="213.393" width="35.5655" height="35.5655" stroke="#1E0044" stroke-width="0.711309"/>
<rect x="106.697" y="213.393" width="35.5655" height="35.5655" stroke="#1E0044" stroke-width="0.711309"/>
<rect x="142.262" y="213.393" width="35.5655" height="35.5655" stroke="#1E0044" stroke-width="0.711309"/>
<rect x="177.828" y="213.393" width="35.5655" height="35.5655" stroke="#1E0044" stroke-width="0.711309"/>
<rect x="213.393" y="213.393" width="35.5655" height="35.5655" stroke="#1E0044" stroke-width="0.711309"/>
<rect x="248.959" y="213.393" width="35.5655" height="35.5655" stroke="#1E0044" stroke-width="0.711309"/>
<rect x="284.523" y="213.393" width="35.5655" height="35.5655" stroke="#1E0044" stroke-width="0.711309"/>
<rect x="320.09" y="213.393" width="35.5655" height="35.5655" stroke="#1E0044" stroke-width="0.711309"/>
<rect x="355.654" y="213.393" width="35.5655" height="35.5655" stroke="#1E0044" stroke-width="0.711309"/>
<rect x="391.221" y="213.393" width="35.5655" height="35.5655" stroke="#1E0044" stroke-width="0.711309"/>
<rect x="426.785" y="213.393" width="35.5655" height="35.5655" stroke="#1E0044" stroke-width="0.711309"/>
<rect x="462.352" y="213.393" width="35.5655" height="35.5655" stroke="#1E0044" stroke-width="0.711309"/>
<rect x="497.916" y="213.393" width="35.5655" height="35.5655" stroke="#1E0044" stroke-width="0.711309"/>
<rect x="533.482" y="213.393" width="35.5655" height="35.5655" stroke="#1E0044" stroke-width="0.711309"/>
<rect y="248.959" width="35.5655" height="35.5655" stroke="#1E0044" stroke-width="0.711309"/>
<rect x="35.5664" y="248.959" width="35.5655" height="35.5655" stroke="#1E0044" stroke-width="0.711309"/>
<rect x="71.1309" y="248.959" width="35.5655" height="35.5655" stroke="#1E0044" stroke-width="0.711309"/>
<rect x="106.697" y="248.959" width="35.5655" height="35.5655" stroke="#1E0044" stroke-width="0.711309"/>
<rect x="142.262" y="248.959" width="35.5655" height="35.5655" stroke="#1E0044" stroke-width="0.711309"/>
<rect x="177.828" y="248.959" width="35.5655" height="35.5655" stroke="#1E0044" stroke-width="0.711309"/>
<rect x="213.393" y="248.959" width="35.5655" height="35.5655" stroke="#1E0044" stroke-width="0.711309"/>
<rect x="248.959" y="248.959" width="35.5655" height="35.5655" stroke="#1E0044" stroke-width="0.711309"/>
<rect x="284.523" y="248.959" width="35.5655" height="35.5655" fill="#1E0044" stroke="#1E0044" stroke-width="0.711309"/>
<rect x="320.09" y="248.959" width="35.5655" height="35.5655" stroke="#1E0044" stroke-width="0.711309"/>
<rect x="355.654" y="248.959" width="35.5655" height="35.5655" stroke="#1E0044" stroke-width="0.711309"/>
<rect x="391.221" y="248.959" width="35.5655" height="35.5655" stroke="#1E0044" stroke-width="0.711309"/>
<rect x="426.785" y="248.959" width="35.5655" height="35.5655" stroke="#1E0044" stroke-width="0.711309"/>
<rect x="462.352" y="248.959" width="35.5655" height="35.5655" stroke="#1E0044" stroke-width="0.711309"/>
<rect x="497.916" y="248.959" width="35.5655" height="35.5655" stroke="#1E0044" stroke-width="0.711309"/>
<rect x="533.482" y="248.959" width="35.5655" height="35.5655" stroke="#1E0044" stroke-width="0.711309"/>
<rect y="284.524" width="35.5655" height="35.5655" stroke="#1E0044" stroke-width="0.711309"/>
<rect x="35.5664" y="284.524" width="35.5655" height="35.5655" stroke="#1E0044" stroke-width="0.711309"/>
<rect x="71.1309" y="284.524" width="35.5655" height="35.5655" stroke="#1E0044" stroke-width="0.711309"/>
<rect x="106.697" y="284.524" width="35.5655" height="35.5655" stroke="#1E0044" stroke-width="0.711309"/>
<rect x="142.262" y="284.524" width="35.5655" height="35.5655" fill="#1E0044" stroke="#1E0044" stroke-width="0.711309"/>
<rect x="177.828" y="284.524" width="35.5655" height="35.5655" stroke="#1E0044" stroke-width="0.711309"/>
<rect x="213.393" y="284.524" width="35.5655" height="35.5655" stroke="#1E0044" stroke-width="0.711309"/>
<rect x="248.959" y="284.524" width="35.5655" height="35.5655" stroke="#1E0044" stroke-width="0.711309"/>
<rect x="284.523" y="284.524" width="35.5655" height="35.5655" stroke="#1E0044" stroke-width="0.711309"/>
<rect x="320.09" y="284.524" width="35.5655" height="35.5655" stroke="#1E0044" stroke-width="0.711309"/>
<rect x="355.654" y="284.524" width="35.5655" height="35.5655" stroke="#1E0044" stroke-width="0.711309"/>
<rect x="391.221" y="284.524" width="35.5655" height="35.5655" stroke="#1E0044" stroke-width="0.711309"/>
<rect x="426.785" y="284.524" width="35.5655" height="35.5655" stroke="#1E0044" stroke-width="0.711309"/>
<rect x="462.352" y="284.524" width="35.5655" height="35.5655" stroke="#1E0044" stroke-width="0.711309"/>
<rect x="497.916" y="284.524" width="35.5655" height="35.5655" stroke="#1E0044" stroke-width="0.711309"/>
<rect x="533.482" y="284.524" width="35.5655" height="35.5655" stroke="#1E0044" stroke-width="0.711309"/>
<rect y="320.09" width="35.5655" height="35.5655" stroke="#1E0044" stroke-width="0.711309"/>
<rect x="35.5664" y="320.09" width="35.5655" height="35.5655" stroke="#1E0044" stroke-width="0.711309"/>
<rect x="71.1309" y="320.09" width="35.5655" height="35.5655" stroke="#1E0044" stroke-width="0.711309"/>
<rect x="106.697" y="320.09" width="35.5655" height="35.5655" stroke="#1E0044" stroke-width="0.711309"/>
<rect x="142.262" y="320.09" width="35.5655" height="35.5655" stroke="#1E0044" stroke-width="0.711309"/>
<rect x="177.828" y="320.09" width="35.5655" height="35.5655" stroke="#1E0044" stroke-width="0.711309"/>
<rect x="213.393" y="320.09" width="35.5655" height="35.5655" stroke="#1E0044" stroke-width="0.711309"/>
<rect x="248.959" y="320.09" width="35.5655" height="35.5655" stroke="#1E0044" stroke-width="0.711309"/>
<rect x="284.523" y="320.09" width="35.5655" height="35.5655" stroke="#1E0044" stroke-width="0.711309"/>
<rect x="320.09" y="320.09" width="35.5655" height="35.5655" stroke="#1E0044" stroke-width="0.711309"/>
<rect x="355.654" y="320.09" width="35.5655" height="35.5655" stroke="#1E0044" stroke-width="0.711309"/>
<rect x="391.221" y="320.09" width="35.5655" height="35.5655" stroke="#1E0044" stroke-width="0.711309"/>
<rect x="426.785" y="320.09" width="35.5655" height="35.5655" stroke="#1E0044" stroke-width="0.711309"/>
<rect x="462.352" y="320.09" width="35.5655" height="35.5655" stroke="#1E0044" stroke-width="0.711309"/>
<rect x="497.916" y="320.09" width="35.5655" height="35.5655" stroke="#1E0044" stroke-width="0.711309"/>
<rect x="533.482" y="320.09" width="35.5655" height="35.5655" stroke="#1E0044" stroke-width="0.711309"/>
<rect y="355.655" width="35.5655" height="35.5655" stroke="#1E0044" stroke-width="0.711309"/>
<rect x="35.5664" y="355.655" width="35.5655" height="35.5655" stroke="#1E0044" stroke-width="0.711309"/>
<rect x="71.1309" y="355.655" width="35.5655" height="35.5655" stroke="#1E0044" stroke-width="0.711309"/>
<rect x="106.697" y="355.655" width="35.5655" height="35.5655" stroke="#1E0044" stroke-width="0.711309"/>
<rect x="142.262" y="355.655" width="35.5655" height="35.5655" stroke="#1E0044" stroke-width="0.711309"/>
<rect x="177.828" y="355.655" width="35.5655" height="35.5655" stroke="#1E0044" stroke-width="0.711309"/>
<rect x="213.393" y="355.655" width="35.5655" height="35.5655" stroke="#1E0044" stroke-width="0.711309"/>
<rect x="248.959" y="355.655" width="35.5655" height="35.5655" stroke="#1E0044" stroke-width="0.711309"/>
<rect x="284.523" y="355.655" width="35.5655" height="35.5655" stroke="#1E0044" stroke-width="0.711309"/>
<rect x="320.09" y="355.655" width="35.5655" height="35.5655" stroke="#1E0044" stroke-width="0.711309"/>
<rect x="355.654" y="355.655" width="35.5655" height="35.5655" stroke="#1E0044" stroke-width="0.711309"/>
<rect x="391.221" y="355.655" width="35.5655" height="35.5655" stroke="#1E0044" stroke-width="0.711309"/>
<rect x="426.785" y="355.655" width="35.5655" height="35.5655" stroke="#1E0044" stroke-width="0.711309"/>
<rect x="462.352" y="355.655" width="35.5655" height="35.5655" stroke="#1E0044" stroke-width="0.711309"/>
<rect x="497.916" y="355.655" width="35.5655" height="35.5655" stroke="#1E0044" stroke-width="0.711309"/>
<rect x="533.482" y="355.655" width="35.5655" height="35.5655" stroke="#1E0044" stroke-width="0.711309"/>
<rect y="391.22" width="35.5655" height="35.5655" stroke="#1E0044" stroke-width="0.711309"/>
<rect x="35.5664" y="391.22" width="35.5655" height="35.5655" stroke="#1E0044" stroke-width="0.711309"/>
<rect x="71.1309" y="391.22" width="35.5655" height="35.5655" stroke="#1E0044" stroke-width="0.711309"/>
<rect x="106.697" y="391.22" width="35.5655" height="35.5655" stroke="#1E0044" stroke-width="0.711309"/>
<rect x="142.262" y="391.22" width="35.5655" height="35.5655" stroke="#1E0044" stroke-width="0.711309"/>
<rect x="177.828" y="391.22" width="35.5655" height="35.5655" stroke="#1E0044" stroke-width="0.711309"/>
<rect x="213.393" y="391.22" width="35.5655" height="35.5655" stroke="#1E0044" stroke-width="0.711309"/>
<rect x="248.959" y="391.22" width="35.5655" height="35.5655" stroke="#1E0044" stroke-width="0.711309"/>
<rect x="284.523" y="391.22" width="35.5655" height="35.5655" stroke="#1E0044" stroke-width="0.711309"/>
<rect x="320.09" y="391.22" width="35.5655" height="35.5655" stroke="#1E0044" stroke-width="0.711309"/>
<rect x="355.654" y="391.22" width="35.5655" height="35.5655" stroke="#1E0044" stroke-width="0.711309"/>
<rect x="391.221" y="391.22" width="35.5655" height="35.5655" stroke="#1E0044" stroke-width="0.711309"/>
<rect x="426.785" y="391.22" width="35.5655" height="35.5655" stroke="#1E0044" stroke-width="0.711309"/>
<rect x="462.352" y="391.22" width="35.5655" height="35.5655" stroke="#1E0044" stroke-width="0.711309"/>
<rect x="497.916" y="391.22" width="35.5655" height="35.5655" stroke="#1E0044" stroke-width="0.711309"/>
<rect x="533.482" y="391.22" width="35.5655" height="35.5655" stroke="#1E0044" stroke-width="0.711309"/>
<rect y="426.785" width="35.5655" height="35.5655" stroke="#1E0044" stroke-width="0.711309"/>
<rect x="35.5664" y="426.785" width="35.5655" height="35.5655" stroke="#1E0044" stroke-width="0.711309"/>
<rect x="71.1309" y="426.785" width="35.5655" height="35.5655" stroke="#1E0044" stroke-width="0.711309"/>
<rect x="106.697" y="426.785" width="35.5655" height="35.5655" stroke="#1E0044" stroke-width="0.711309"/>
<rect x="142.262" y="426.785" width="35.5655" height="35.5655" stroke="#1E0044" stroke-width="0.711309"/>
<rect x="177.828" y="426.785" width="35.5655" height="35.5655" stroke="#1E0044" stroke-width="0.711309"/>
<rect x="213.393" y="426.785" width="35.5655" height="35.5655" stroke="#1E0044" stroke-width="0.711309"/>
<rect x="248.959" y="426.785" width="35.5655" height="35.5655" stroke="#1E0044" stroke-width="0.711309"/>
<rect x="284.523" y="426.785" width="35.5655" height="35.5655" stroke="#1E0044" stroke-width="0.711309"/>
<rect x="320.09" y="426.785" width="35.5655" height="35.5655" stroke="#1E0044" stroke-width="0.711309"/>
<rect x="355.654" y="426.785" width="35.5655" height="35.5655" stroke="#1E0044" stroke-width="0.711309"/>
<rect x="391.221" y="426.785" width="35.5655" height="35.5655" stroke="#1E0044" stroke-width="0.711309"/>
<rect x="426.785" y="426.785" width="35.5655" height="35.5655" stroke="#1E0044" stroke-width="0.711309"/>
<rect x="462.352" y="426.785" width="35.5655" height="35.5655" stroke="#1E0044" stroke-width="0.711309"/>
<rect x="497.916" y="426.785" width="35.5655" height="35.5655" stroke="#1E0044" stroke-width="0.711309"/>
<rect x="533.482" y="426.785" width="35.5655" height="35.5655" stroke="#1E0044" stroke-width="0.711309"/>
<g filter="url(#filter0_f_549_7200)">
<rect x="-160.461" y="-501.532" width="901.94" height="710.382" fill="url(#paint0_radial_549_7200)"/>
</g>
<rect x="-117.143" y="-166.553" width="749.178" height="644.908" fill="url(#paint1_radial_549_7200)" stroke="#0A101F" stroke-width="0.711309"/>
</g>
<defs>
<filter id="filter0_f_549_7200" x="-373.854" y="-714.925" width="1328.73" height="1137.17" filterUnits="userSpaceOnUse" color-interpolation-filters="sRGB">
<feFlood flood-opacity="0" result="BackgroundImageFix"/>
<feBlend mode="normal" in="SourceGraphic" in2="BackgroundImageFix" result="shape"/>
<feGaussianBlur stdDeviation="106.696" result="effect1_foregroundBlur_549_7200"/>
</filter>
<radialGradient id="paint0_radial_549_7200" cx="0" cy="0" r="1" gradientUnits="userSpaceOnUse" gradientTransform="translate(290.509 -146.341) rotate(90) scale(355.191 450.97)">
<stop offset="0.015625" stop-color="#4D76F4" stop-opacity="0.69"/>
<stop offset="0.223958" stop-color="#4D76F4" stop-opacity="0.34"/>
<stop offset="0.911458" stop-color="#4D76F4" stop-opacity="0"/>
</radialGradient>
<radialGradient id="paint1_radial_549_7200" cx="0" cy="0" r="1" gradientUnits="userSpaceOnUse" gradientTransform="translate(257.446 155.901) rotate(90) scale(322.098 374.233)">
<stop stop-color="#0A101F" stop-opacity="0"/>
<stop offset="0.833333" stop-color="#0A101F"/>
</radialGradient>
<clipPath id="clip0_549_7200">
<rect width="545" height="478" fill="white"/>
</clipPath>
</defs>
</svg>
