<svg width="17" height="16" viewBox="0 0 17 16" fill="none" xmlns="http://www.w3.org/2000/svg">
<path d="M12.4959 0H4.50407C2.29618 0 0.5 1.87596 0.5 4.18192V11.8181C0.5 14.124 2.29618 16 4.50407 16H12.4959C14.7038 16 16.5 14.124 16.5 11.8181V4.18192C16.5 1.87596 14.7038 0 12.4959 0ZM1.91251 4.18192C1.91251 2.68966 3.07527 1.47525 4.50407 1.47525H12.4959C13.9247 1.47525 15.0875 2.68966 15.0875 4.18192V11.8181C15.0875 13.3103 13.9247 14.5248 12.4959 14.5248H4.50407C3.07527 14.5248 1.91251 13.3103 1.91251 11.8181V4.18192Z" fill="#E9DEFF"/>
<path d="M8.50181 11.8877C10.555 11.8877 12.2263 10.1431 12.2263 7.99781C12.2263 5.85251 10.5559 4.10791 8.50181 4.10791C6.44775 4.10791 4.77734 5.85251 4.77734 7.99781C4.77734 10.1431 6.44775 11.8877 8.50181 11.8877ZM8.50181 5.58411C9.77678 5.58411 10.8138 6.66716 10.8138 7.99876C10.8138 9.33036 9.77678 10.4134 8.50181 10.4134C7.22684 10.4134 6.18986 9.33036 6.18986 7.99876C6.18986 6.66716 7.22684 5.58411 8.50181 5.58411Z" fill="#E9DEFF"/>
<path d="M12.5699 4.74117C13.1228 4.74117 13.5734 4.27148 13.5734 3.6931C13.5734 3.11471 13.1237 2.64502 12.5699 2.64502C12.0161 2.64502 11.5664 3.11471 11.5664 3.6931C11.5664 4.27148 12.0161 4.74117 12.5699 4.74117Z" fill="#E9DEFF"/>
</svg>
