<svg width="17" height="16" viewBox="0 0 17 16" fill="none" xmlns="http://www.w3.org/2000/svg">
<path d="M1.06103 3.16645C0.686336 2.81384 0.5 2.37737 0.5 1.85805C0.5 1.33872 0.687333 0.88305 1.06103 0.529426C1.43571 0.176811 1.91803 0 2.50896 0C3.09989 0 3.56328 0.176811 3.93697 0.529426C4.31166 0.88204 4.498 1.32559 4.498 1.85805C4.498 2.3905 4.31067 2.81384 3.93697 3.16645C3.56228 3.51907 3.08694 3.69588 2.50896 3.69588C1.93098 3.69588 1.43571 3.51907 1.06103 3.16645ZM4.18311 5.18919V16H0.813892V5.18919H4.18311Z" fill="#E9DEFF"/>
<path d="M15.4 6.2554C16.1344 7.06368 16.5011 8.17305 16.5011 9.58553V15.8073H13.3013V10.024C13.3013 9.31173 13.119 8.75804 12.7552 8.364C12.3915 7.96996 11.9012 7.77194 11.2874 7.77194C10.6735 7.77194 10.1832 7.96895 9.81949 8.364C9.45577 8.75804 9.27341 9.31173 9.27341 10.024V15.8073H6.05469V5.15714H9.27341V6.5696C9.59927 6.09878 10.0388 5.72697 10.5908 5.45317C11.1429 5.17936 11.7637 5.04297 12.4543 5.04297C13.684 5.04297 14.6665 5.44711 15.4 6.2554Z" fill="#E9DEFF"/>
</svg>
