<svg width="51" height="51" viewBox="0 0 51 51" fill="none" xmlns="http://www.w3.org/2000/svg">
<g filter="url(#filter0_d_557_1688)">
<path d="M43.1082 32.8401C40.8231 32.7821 39.052 33.0149 37.5666 33.655C37.1381 33.8295 36.4524 33.8296 36.3953 34.3826C36.6238 34.6154 36.6524 34.9938 36.8524 35.3138C37.1955 35.8957 37.795 36.6814 38.3378 37.0891C38.9376 37.5546 39.5377 38.02 40.1659 38.4275C41.28 39.126 42.537 39.5333 43.6225 40.2317C44.2512 40.6389 44.8792 41.163 45.5077 41.5994C45.8219 41.8319 46.0218 42.2106 46.4219 42.356V42.2688C46.2217 42.0067 46.1646 41.6285 45.9648 41.3375C45.6794 41.0465 45.3934 40.7845 45.1077 40.4935C44.2794 39.3588 43.2511 38.3693 42.1371 37.5546C41.2231 36.9143 39.2233 36.0413 38.852 34.9645C38.852 34.9645 38.8233 34.9356 38.7949 34.9065C39.4232 34.8483 40.1659 34.6154 40.766 34.4408C41.7371 34.1787 42.6226 34.2371 43.6225 33.9752C44.0794 33.8587 44.5365 33.7132 44.9935 33.5677V33.3059C44.4795 32.7821 44.1082 32.0838 43.5653 31.589C42.1085 30.3083 40.5087 29.0572 38.852 28.0096C37.9664 27.4275 36.8237 27.0492 35.8811 26.5546C35.5386 26.3798 34.967 26.2927 34.7672 26.0016C34.2528 25.3615 33.9671 24.5177 33.5959 23.761C32.7677 22.1603 31.9677 20.3853 31.2534 18.6977C30.7395 17.5626 30.4253 16.4276 29.7968 15.3802C26.8545 10.4331 23.6552 7.43578 18.7421 4.4965C17.685 3.88549 16.4282 3.62356 15.0856 3.30359C14.3717 3.27432 13.6573 3.21628 12.9433 3.18701C12.4862 2.98329 12.0291 2.43049 11.6291 2.16856C10.0012 1.12083 5.80181 -1.14874 4.60209 1.84858C3.83074 3.73998 5.74484 5.60227 6.40158 6.56285C6.88758 7.23206 7.51576 7.98858 7.85858 8.74527C8.05856 9.2397 8.11553 9.7639 8.31551 10.2876C8.77277 11.5676 9.20097 12.9939 9.80108 14.1871C10.1153 14.7981 10.458 15.4382 10.858 15.9912C11.0865 16.3112 11.4863 16.4569 11.5722 16.9806C11.1724 17.5626 11.1436 18.4357 10.9149 19.1632C9.88662 22.4515 10.2867 26.5255 11.7434 28.9408C12.2003 29.668 13.286 31.269 14.7428 30.6577C16.0284 30.134 15.7427 28.4753 16.1137 27.0203C16.1998 26.6707 16.1426 26.4382 16.3139 26.2054V26.2637C16.7139 27.0783 17.1136 27.8643 17.485 28.679C18.3707 30.1047 19.913 31.589 21.1985 32.5785C21.8843 33.1021 22.4269 34.0043 23.284 34.3244V34.2369H23.2267C23.0553 33.975 22.7981 33.8587 22.5697 33.6549C22.0557 33.1313 21.4841 32.491 21.0843 31.909C19.8848 30.2792 18.8276 28.4751 17.885 26.6126C17.4281 25.7108 17.0279 24.7213 16.6567 23.8192C16.4851 23.4696 16.4851 22.9461 16.1996 22.7717C15.7711 23.4118 15.1427 23.9647 14.8285 24.7504C14.286 26.0016 14.2287 27.544 14.0287 29.1443C13.9145 29.1737 13.9714 29.1443 13.9143 29.2029C13.0004 28.9697 12.6862 28.0096 12.3432 27.1947C11.4861 25.1287 11.3433 21.8112 12.0862 19.4251C12.2862 18.8139 13.1433 16.8934 12.8005 16.3113C12.629 15.7584 12.0575 15.4382 11.7434 15.0019C11.3722 14.4489 10.9721 13.7507 10.7151 13.1394C10.0295 11.5098 9.68664 9.70552 8.94402 8.07589C8.6012 7.3192 8.00159 6.53374 7.51576 5.83526C6.97312 5.04963 6.37318 4.4965 5.94465 3.56536C5.80197 3.24538 5.60183 2.72152 5.83038 2.37228C5.88751 2.13945 6.00162 2.05231 6.23034 1.9941C6.60173 1.6738 7.65876 2.08125 8.02983 2.25587C9.08686 2.69208 9.97233 3.09987 10.858 3.71087C11.2577 4.00191 11.6863 4.55487 12.2003 4.70039H12.8003C13.7145 4.90395 14.7426 4.7586 15.5997 5.02036C17.1138 5.51495 18.4848 6.24254 19.7132 7.02834C23.4554 9.44359 26.5401 12.8775 28.6256 16.9806C28.9685 17.6496 29.1111 18.2611 29.4254 18.9593C30.0255 20.3853 30.7681 21.8403 31.3677 23.2371C31.9677 24.6047 32.5389 26.0016 33.3959 27.1367C33.8245 27.7475 35.5382 28.0678 36.3096 28.388C36.881 28.6497 37.7666 28.8827 38.2807 29.2027C39.2518 29.8135 40.223 30.5123 41.1372 31.1814C41.5943 31.5306 43.0224 32.2582 43.1082 32.8401Z" fill="#00546B"/>
<path d="M13.9718 7.55176C13.4863 7.55176 13.1436 7.6103 12.8008 7.69744V7.75565H12.8579C13.0866 8.22131 13.4863 8.54144 13.7718 8.94872C14.0005 9.41421 14.2003 9.88004 14.429 10.3457C14.4574 10.3164 14.486 10.2875 14.486 10.2875C14.8861 9.99628 15.0859 9.53079 15.0859 8.83231C14.9145 8.62875 14.886 8.42503 14.7431 8.22131C14.5719 7.9301 14.2003 7.78475 13.9718 7.55176Z" fill="#00546B"/>
</g>
<defs>
<filter id="filter0_d_557_1688" x="0.421875" y="0.355957" width="50" height="50" filterUnits="userSpaceOnUse" color-interpolation-filters="sRGB">
<feFlood flood-opacity="0" result="BackgroundImageFix"/>
<feColorMatrix in="SourceAlpha" type="matrix" values="0 0 0 0 0 0 0 0 0 0 0 0 0 0 0 0 0 0 127 0" result="hardAlpha"/>
<feOffset dy="4"/>
<feGaussianBlur stdDeviation="2"/>
<feComposite in2="hardAlpha" operator="out"/>
<feColorMatrix type="matrix" values="0 0 0 0 0 0 0 0 0 0 0 0 0 0 0 0 0 0 0.25 0"/>
<feBlend mode="normal" in2="BackgroundImageFix" result="effect1_dropShadow_557_1688"/>
<feBlend mode="normal" in="SourceGraphic" in2="effect1_dropShadow_557_1688" result="shape"/>
</filter>
</defs>
</svg>
