<svg width="39" height="29" viewBox="0 0 39 29" fill="none" xmlns="http://www.w3.org/2000/svg">
<g clip-path="url(#clip0_650_1778)">
<rect width="38.4733" height="29" fill="black"/>
<path d="M9.56995 19.14L10.134 22.5646C10.6385 25.6275 13.0392 28.0281 16.1021 28.5326L19.5266 29.0967L16.1021 29.6608C13.0392 30.1653 10.6385 32.5659 10.134 35.6288L9.56995 39.0534L9.00588 35.6288C8.50137 32.5659 6.10074 30.1653 3.03782 29.6608L-0.386719 29.0967L3.03782 28.5326C6.10074 28.0281 8.50137 25.6275 9.00588 22.5646L9.56995 19.14Z" fill="#8338EC"/>
<path d="M29.1921 -9.66663L29.7397 -6.34183C30.2295 -3.36812 32.5602 -1.03742 35.5339 -0.547602L38.8587 4.37647e-05L35.5339 0.54769C32.5602 1.03751 30.2295 3.36821 29.7397 6.34192L29.1921 9.66671L28.6444 6.34192C28.1546 3.36821 25.8239 1.03751 22.8502 0.54769L19.5254 4.37647e-05L22.8502 -0.547602C25.8239 -1.03742 28.1546 -3.36813 28.6444 -6.34183L29.1921 -9.66663Z" fill="#8338EC"/>
<path d="M9.47273 -2.02181e-05L16.9161 -2.06604e-05L29.1928 29.031L21.4593 29.031L9.47273 -2.02181e-05Z" fill="url(#paint0_linear_650_1778)"/>
</g>
<defs>
<linearGradient id="paint0_linear_650_1778" x1="4.23634" y1="-2.63228" x2="35.2949" y2="35.954" gradientUnits="userSpaceOnUse">
<stop stop-color="#8338EC"/>
<stop offset="1" stop-color="#B923FF"/>
</linearGradient>
<clipPath id="clip0_650_1778">
<rect width="38.4733" height="29" fill="white"/>
</clipPath>
</defs>
</svg>
