<svg width="71" height="21" viewBox="0 0 71 21" fill="none" xmlns="http://www.w3.org/2000/svg">
<g clip-path="url(#clip0_557_1679)" filter="url(#filter0_d_557_1679)">
<path d="M45.7051 0.0561523H56.5224V2.05276H52.2313V12.5566H50.0856V2.05276H45.7051V0.0561523Z" fill="white"/>
<path d="M27.913 0.0561523V2.05276H19.2422V5.26468H26.2153V7.26127H19.2422V10.56H27.913V12.5566H17.0966V2.05276H17.0957V0.0561523H27.913Z" fill="white"/>
<path d="M33.3157 0.0615234H30.5078L40.5651 12.562H43.3812L38.3519 6.31606L43.3732 0.0710605L40.5651 0.0753999L36.9461 4.57011L33.3157 0.0615234Z" fill="white"/>
<path d="M36.1973 8.99029L34.7911 7.24194L30.5 12.5711H33.3159L36.1973 8.99029Z" fill="white"/>
<path fill-rule="evenodd" clip-rule="evenodd" d="M17.1727 12.5567L7.1019 0.0510254H4.41992V12.5515H6.56551V2.72299L14.4773 12.5567H17.1727Z" fill="white"/>
<path d="M57.0041 12.4805C56.847 12.4805 56.7133 12.4261 56.6014 12.3172C56.4895 12.2083 56.4342 12.0765 56.4356 11.9204C56.4342 11.7685 56.4895 11.6382 56.6014 11.5293C56.7133 11.4204 56.847 11.366 57.0041 11.366C57.1553 11.366 57.2875 11.4204 57.3994 11.5293C57.5129 11.6382 57.5695 11.7685 57.5711 11.9204C57.5695 12.0235 57.5434 12.1181 57.491 12.2026C57.4373 12.2885 57.369 12.3559 57.2831 12.4046C57.1988 12.4547 57.1058 12.4805 57.0041 12.4805Z" fill="white"/>
<path d="M60.6679 7.21411H61.6187V10.8772C61.6173 11.2138 61.5444 11.5018 61.4021 11.7439C61.2582 11.986 61.059 12.1707 60.8031 12.3011C60.5487 12.43 60.2507 12.496 59.9119 12.496C59.6022 12.496 59.3246 12.4401 59.0775 12.3312C58.8303 12.2223 58.6341 12.059 58.4902 11.8441C58.3447 11.6292 58.2734 11.3614 58.2734 11.0405H59.2258C59.2272 11.1809 59.2592 11.3026 59.3202 11.4043C59.3812 11.5061 59.4655 11.5834 59.5732 11.6378C59.6821 11.6923 59.8073 11.7195 59.9482 11.7195C60.1009 11.7195 60.2318 11.688 60.3378 11.6235C60.4439 11.5605 60.5254 11.4659 60.5821 11.3399C60.6373 11.2153 60.6665 11.0605 60.6679 10.8772V7.21411Z" fill="white"/>
<path d="M65.5299 8.64679C65.5067 8.42475 65.4049 8.25141 65.2276 8.12821C65.0487 8.00358 64.8176 7.94198 64.534 7.94198C64.3349 7.94198 64.1635 7.97207 64.021 8.0308C63.8785 8.09097 63.768 8.17118 63.6923 8.27289C63.6168 8.37461 63.579 8.49065 63.576 8.62102C63.576 8.72989 63.6022 8.82443 63.6531 8.90323C63.704 8.98344 63.7722 9.05078 63.861 9.10522C63.9481 9.16109 64.0456 9.20692 64.1518 9.24417C64.2593 9.28141 64.3669 9.31294 64.4744 9.33873L64.9702 9.46049C65.1694 9.50633 65.3628 9.56794 65.5474 9.64672C65.732 9.72408 65.8992 9.82293 66.0459 9.94183C66.1929 10.0607 66.3092 10.204 66.3949 10.3716C66.4807 10.5392 66.5243 10.7355 66.5243 10.9618C66.5243 11.2669 66.4458 11.5348 66.2873 11.7669C66.1289 11.9975 65.9006 12.178 65.6011 12.3084C65.3031 12.4373 64.9426 12.5032 64.5181 12.5032C64.1081 12.5032 63.7505 12.4402 63.4496 12.3141C63.1473 12.1895 62.9116 12.0061 62.7415 11.7655C62.5715 11.5248 62.4799 11.2311 62.4668 10.8859H63.4089C63.422 11.0664 63.4802 11.2168 63.579 11.3386C63.6792 11.4589 63.8101 11.5477 63.9701 11.6079C64.1315 11.6666 64.3116 11.6967 64.5109 11.6967C64.7188 11.6967 64.9019 11.6652 65.0603 11.6036C65.2173 11.542 65.3409 11.456 65.4296 11.3443C65.5198 11.234 65.5649 11.1036 65.5663 10.9546C65.5649 10.8186 65.5241 10.7054 65.4456 10.6165C65.3656 10.5277 65.2552 10.4532 65.1141 10.3931C64.9717 10.3329 64.8059 10.2785 64.6169 10.2312L64.0151 10.0794C63.5804 9.96905 63.2358 9.80145 62.9843 9.57653C62.7314 9.35162 62.6063 9.05365 62.6063 8.67975C62.6063 8.37319 62.6906 8.10387 62.8609 7.87322C63.0294 7.64259 63.2606 7.46351 63.5528 7.33601C63.8465 7.20709 64.178 7.14404 64.5471 7.14404C64.9223 7.14404 65.2507 7.20709 65.5343 7.33601C65.8177 7.46351 66.0403 7.64116 66.2015 7.86749C66.3629 8.09383 66.4473 8.35312 66.4517 8.64679H65.5299Z" fill="white"/>
</g>
<defs>
<filter id="filter0_d_557_1679" x="0.419922" y="0.0510254" width="70.1035" height="20.6099" filterUnits="userSpaceOnUse" color-interpolation-filters="sRGB">
<feFlood flood-opacity="0" result="BackgroundImageFix"/>
<feColorMatrix in="SourceAlpha" type="matrix" values="0 0 0 0 0 0 0 0 0 0 0 0 0 0 0 0 0 0 127 0" result="hardAlpha"/>
<feOffset dy="4"/>
<feGaussianBlur stdDeviation="2"/>
<feComposite in2="hardAlpha" operator="out"/>
<feColorMatrix type="matrix" values="0 0 0 0 0 0 0 0 0 0 0 0 0 0 0 0 0 0 0.25 0"/>
<feBlend mode="normal" in2="BackgroundImageFix" result="effect1_dropShadow_557_1679"/>
<feBlend mode="normal" in="SourceGraphic" in2="effect1_dropShadow_557_1679" result="shape"/>
</filter>
<clipPath id="clip0_557_1679">
<rect width="62.1036" height="12.6099" fill="white" transform="translate(4.41992 0.0510254)"/>
</clipPath>
</defs>
</svg>
