<svg width="56" height="50" viewBox="0 0 56 50" fill="none" xmlns="http://www.w3.org/2000/svg">
<g filter="url(#filter0_d_557_1667)">
<path d="M27.525 25.0587C29.6864 25.0587 31.4386 23.4009 31.4386 21.3559C31.4386 19.3109 29.6864 17.6531 27.525 17.6531C25.3635 17.6531 23.6113 19.3109 23.6113 21.3559C23.6113 23.4009 25.3635 25.0587 27.525 25.0587Z" fill="#61DAFB"/>
<path d="M27.5254 28.9423C39.1234 28.9423 48.5254 25.5458 48.5254 21.356C48.5254 17.1663 39.1234 13.7698 27.5254 13.7698C15.9274 13.7698 6.52539 17.1663 6.52539 21.356C6.52539 25.5458 15.9274 28.9423 27.5254 28.9423Z" stroke="#61DAFB" stroke-width="5"/>
<path d="M20.5809 25.1491C26.3798 34.6522 34.1898 40.6577 38.0248 38.5628C41.8598 36.4679 40.2677 27.0659 34.4688 17.5628C28.6698 8.05973 20.8598 2.0542 17.0248 4.14909C13.1898 6.24397 14.7819 15.646 20.5809 25.1491Z" stroke="#61DAFB" stroke-width="5"/>
<path d="M20.5809 17.5627C14.7819 27.0658 13.1898 36.4679 17.0248 38.5627C20.8598 40.6576 28.6698 34.6521 34.4687 25.149C40.2677 15.6459 41.8598 6.2439 38.0248 4.14901C34.1898 2.05412 26.3798 8.05965 20.5809 17.5627Z" stroke="#61DAFB" stroke-width="5"/>
</g>
<defs>
<filter id="filter0_d_557_1667" x="0.0253906" y="0.355957" width="55" height="50" filterUnits="userSpaceOnUse" color-interpolation-filters="sRGB">
<feFlood flood-opacity="0" result="BackgroundImageFix"/>
<feColorMatrix in="SourceAlpha" type="matrix" values="0 0 0 0 0 0 0 0 0 0 0 0 0 0 0 0 0 0 127 0" result="hardAlpha"/>
<feOffset dy="4"/>
<feGaussianBlur stdDeviation="2"/>
<feComposite in2="hardAlpha" operator="out"/>
<feColorMatrix type="matrix" values="0 0 0 0 0 0 0 0 0 0 0 0 0 0 0 0 0 0 0.25 0"/>
<feBlend mode="normal" in2="BackgroundImageFix" result="effect1_dropShadow_557_1667"/>
<feBlend mode="normal" in="SourceGraphic" in2="effect1_dropShadow_557_1667" result="shape"/>
</filter>
</defs>
</svg>
