<svg width="24" height="24" viewBox="0 0 24 24" fill="none" xmlns="http://www.w3.org/2000/svg">
<g clip-path="url(#clip0_584_1670)">
<path d="M18.375 0H5.625C2.5184 0 0 2.5184 0 5.625V18.375C0 21.4816 2.5184 24 5.625 24H18.375C21.4816 24 24 21.4816 24 18.375V5.625C24 2.5184 21.4816 0 18.375 0Z" fill="#001E36"/>
<path d="M5.40234 16.6912V6.40117C5.40234 6.33114 5.43234 6.2912 5.50238 6.2912C5.67234 6.2912 5.83238 6.2912 6.06234 6.28117C6.30234 6.27114 6.55238 6.27114 6.82238 6.2612C7.09238 6.25117 7.38234 6.25117 7.69238 6.24114C8.00231 6.2312 8.30231 6.2312 8.60231 6.2312C9.42234 6.2312 10.1023 6.33114 10.6624 6.54114C11.1644 6.71165 11.6221 6.99177 12.0023 7.36117C12.3245 7.68452 12.5735 8.07328 12.7324 8.50117C12.8824 8.92117 12.9623 9.3512 12.9623 9.8012C12.9623 10.6612 12.7623 11.3712 12.3623 11.9312C11.9623 12.4912 11.4023 12.9112 10.7524 13.1512C10.0723 13.4012 9.32231 13.4912 8.50238 13.4912C8.26238 13.4912 8.10234 13.4912 8.00231 13.4812C7.90228 13.4711 7.76231 13.4711 7.57238 13.4711V16.6811C7.58231 16.7512 7.53234 16.8112 7.46231 16.8212H5.52234C5.44238 16.8212 5.40234 16.7812 5.40234 16.6912ZM7.58231 8.22114V11.5811C7.72237 11.5912 7.85231 11.6012 7.97231 11.6012H8.50238C8.89238 11.6012 9.28238 11.5412 9.65231 11.4212C9.97238 11.3312 10.2523 11.1412 10.4723 10.8911C10.6823 10.6412 10.7824 10.3012 10.7824 9.8612C10.7918 9.54869 10.712 9.23996 10.5523 8.97114C10.3823 8.71117 10.1423 8.5112 9.85238 8.40114C9.48234 8.25114 9.08231 8.19114 8.67234 8.20117C8.41238 8.20117 8.18231 8.20117 7.99237 8.2112C7.79231 8.20117 7.65234 8.2112 7.58231 8.22114ZM19.2023 10.9712C18.9023 10.8112 18.5824 10.7012 18.2423 10.6312C17.8723 10.5512 17.5024 10.5011 17.1223 10.5011C16.9223 10.4912 16.7123 10.5212 16.5223 10.5712C16.3924 10.6012 16.2823 10.6712 16.2124 10.7711C16.1623 10.8512 16.1323 10.9511 16.1323 11.0411C16.1323 11.1311 16.1723 11.2211 16.2323 11.3012C16.3223 11.4112 16.4423 11.5012 16.5724 11.5712C16.8042 11.6912 17.0411 11.8013 17.2823 11.9012C17.8223 12.0812 18.3424 12.3311 18.8224 12.6311C19.1524 12.8411 19.4224 13.1212 19.6123 13.4612C19.7723 13.7812 19.8523 14.1311 19.8424 14.4911C19.8523 14.9612 19.7123 15.4312 19.4524 15.8212C19.1734 16.2204 18.7842 16.5296 18.3323 16.7111C17.8423 16.9211 17.2423 17.0312 16.5223 17.0312C16.0624 17.0312 15.6124 16.9912 15.1624 16.9012C14.8097 16.8403 14.4667 16.7327 14.1424 16.5812C14.0723 16.5412 14.0224 16.4711 14.0323 16.3912V14.6512C14.0323 14.6212 14.0423 14.5811 14.0723 14.5612C14.1023 14.5412 14.1323 14.5511 14.1623 14.5712C14.5523 14.8012 14.9623 14.9612 15.4024 15.0611C15.7823 15.1612 16.1824 15.2111 16.5823 15.2111C16.9624 15.2111 17.2324 15.1612 17.4124 15.0712C17.5723 15.0011 17.6824 14.8312 17.6824 14.6512C17.6824 14.5112 17.6023 14.3812 17.4424 14.2511C17.2823 14.1212 16.9523 13.9712 16.4623 13.7812C15.9597 13.604 15.4823 13.362 15.0424 13.0612C14.729 12.8379 14.4693 12.5475 14.2823 12.2111C14.1223 11.8912 14.0423 11.5412 14.0524 11.1911C14.0524 10.7612 14.1724 10.3511 14.3923 9.9812C14.6423 9.58117 15.0124 9.2612 15.4423 9.06114C15.9124 8.82114 16.5023 8.71117 17.2123 8.71117C17.6224 8.71117 18.0424 8.74117 18.4523 8.80117C18.7523 8.8412 19.0423 8.92117 19.3123 9.03114C19.3523 9.04117 19.3924 9.0812 19.4123 9.12114C19.4224 9.16117 19.4323 9.2012 19.4323 9.24114V10.8712C19.4323 10.9112 19.4123 10.9511 19.3823 10.9712C19.2923 10.9912 19.2424 10.9912 19.2023 10.9712Z" fill="#31A8FF"/>
</g>
<defs>
<clipPath id="clip0_584_1670">
<rect width="24" height="24" fill="white"/>
</clipPath>
</defs>
</svg>
