<svg width="24" height="24" viewBox="0 0 24 24" fill="none" xmlns="http://www.w3.org/2000/svg">
<g clip-path="url(#clip0_584_1674)">
<path d="M18.375 0H5.625C2.5184 0 0 2.5184 0 5.625V18.375C0 21.4816 2.5184 24 5.625 24H18.375C21.4816 24 24 21.4816 24 18.375V5.625C24 2.5184 21.4816 0 18.375 0Z" fill="#330000"/>
<path d="M11.6006 14.2812H7.88064L7.12061 16.6312C7.10064 16.7212 7.02067 16.7812 6.93067 16.7712H5.05061C4.94064 16.7712 4.91064 16.7112 4.94064 16.5912L8.16067 7.32116C8.19067 7.22122 8.22067 7.11116 8.26061 6.99116C8.30064 6.78116 8.32061 6.56122 8.32061 6.34119C8.31067 6.29122 8.35061 6.24116 8.40067 6.23122H10.9906C11.0707 6.23122 11.1106 6.26122 11.1206 6.31119L14.7706 16.6112C14.8006 16.7212 14.7706 16.7712 14.6707 16.7712H12.5806C12.5107 16.7812 12.4406 16.7312 12.4207 16.6612L11.6006 14.2812ZM8.46067 12.2512H11.0006C10.9406 12.0412 10.8607 11.7912 10.7707 11.5312C10.6807 11.2612 10.5907 10.9712 10.5007 10.6712C10.4006 10.3612 10.3106 10.0612 10.2106 9.75116C10.1107 9.44122 10.0207 9.15116 9.94061 8.86119C9.86064 8.58125 9.79061 8.32119 9.72067 8.08119H9.70061C9.61061 8.51122 9.50064 8.94125 9.36067 9.37119C9.21067 9.85119 9.06067 10.3512 8.90064 10.8512C8.77152 11.3232 8.62476 11.7902 8.46067 12.2512ZM17.0006 7.98116C16.6706 7.99119 16.3507 7.86116 16.1107 7.63119C15.8807 7.38116 15.7607 7.05116 15.7706 6.71122C15.7607 6.37119 15.8906 6.05122 16.1306 5.82116C16.3706 5.5911 16.6907 5.47119 17.0207 5.47119C17.4107 5.47119 17.7107 5.59119 17.9306 5.82116C18.1523 6.06359 18.2707 6.38289 18.2606 6.71122C18.2707 7.05116 18.1507 7.38116 17.9107 7.63119C17.6807 7.87119 17.3407 8.00122 17.0006 7.98116ZM15.8807 16.6612V8.96122C15.8807 8.86119 15.9206 8.82116 16.0106 8.82116H17.9906C18.0806 8.82116 18.1207 8.87122 18.1207 8.96122V16.6612C18.1207 16.7712 18.0806 16.8212 17.9906 16.8212H16.0307C15.9307 16.8212 15.8807 16.7612 15.8807 16.6612Z" fill="#FF9A00"/>
</g>
<defs>
<clipPath id="clip0_584_1674">
<rect width="24" height="24" fill="white"/>
</clipPath>
</defs>
</svg>
