<svg width="114" height="114" viewBox="0 0 114 114" fill="none" xmlns="http://www.w3.org/2000/svg">
<g clip-path="url(#clip0_473_1089)">
<g clip-path="url(#clip1_473_1089)">
<g clip-path="url(#clip2_473_1089)">
<path d="M78.8532 90.7755C97.6371 78.5772 102.976 53.4611 90.7773 34.6773C78.5789 15.8935 53.4629 10.5549 34.6791 22.7533C15.8953 34.9516 10.5567 60.0676 22.755 78.8515C34.9534 97.6353 60.0694 102.974 78.8532 90.7755Z" fill="#0B001A" stroke="#E9DEFF" stroke-width="0.962778" stroke-miterlimit="10"/>
<path d="M57.5412 50.5459C60.196 54.634 58.8843 62.9291 51.7608 67.5551C44.6374 72.1811 36.394 69.8024 33.8711 65.9175" stroke="#E9DEFF" stroke-width="0.962778" stroke-miterlimit="10"/>
<path d="M51.9228 45.7949C52.5274 45.4023 52.6992 44.5939 52.3066 43.9893C51.9139 43.3847 51.1055 43.2129 50.501 43.6055C49.8964 43.9981 49.7245 44.8065 50.1172 45.4111C50.5098 46.0157 51.3182 46.1875 51.9228 45.7949Z" fill="#E9DEFF" stroke="#E9DEFF" stroke-width="0.102334" stroke-miterlimit="10"/>
<path d="M32.54 58.383C33.1445 57.9904 33.3164 57.182 32.9238 56.5774C32.5311 55.9728 31.7227 55.801 31.1181 56.1936C30.5136 56.5863 30.3417 57.3947 30.7343 57.9992C31.127 58.6038 31.9354 58.7757 32.54 58.383Z" fill="#E9DEFF" stroke="#E9DEFF" stroke-width="0.102334" stroke-miterlimit="10"/>
</g>
</g>
</g>
<defs>
<clipPath id="clip0_473_1089">
<rect width="82.07" height="82.07" fill="white" transform="translate(0 44.6985) rotate(-33)"/>
</clipPath>
<clipPath id="clip1_473_1089">
<rect width="82.07" height="82.07" fill="white" transform="translate(0 44.6985) rotate(-33)"/>
</clipPath>
<clipPath id="clip2_473_1089">
<rect width="82.07" height="82.07" fill="white" transform="translate(0 44.6985) rotate(-33)"/>
</clipPath>
</defs>
</svg>
