<svg width="52" height="52" viewBox="0 0 52 52" fill="none" xmlns="http://www.w3.org/2000/svg">
<g filter="url(#filter0_d_557_1655)">
<path d="M4.52539 0.355957H47.5254V43.356H4.52539V0.355957Z" fill="#017ACB"/>
<path d="M25.1725 16.2794H27.2352V19.8403H21.6586V35.6831L21.5108 35.7234C21.3092 35.7772 18.6553 35.7772 18.0842 35.7167L17.6274 35.6764V19.8403H12.0508V16.2794L13.8178 16.2592C14.7853 16.2458 17.2713 16.2458 19.3406 16.2592C21.41 16.2726 24.0303 16.2794 25.1725 16.2794ZM40.9146 34.0034C40.0949 34.8701 39.2147 35.3539 37.75 35.7503C37.1118 35.925 37.0043 35.9317 35.5664 35.925C34.1286 35.9183 34.0144 35.9183 33.3157 35.7369C31.5083 35.2733 30.0503 34.3662 29.056 33.083C28.7738 32.7201 28.3102 31.9676 28.3102 31.8736C28.3102 31.8467 28.3774 31.7862 28.4647 31.7459C28.5521 31.7056 28.7335 31.5914 28.8813 31.5041C29.0291 31.4167 29.2978 31.2555 29.4792 31.1614C29.6607 31.0673 30.1847 30.7583 30.6416 30.4828C31.0985 30.2073 31.515 29.9856 31.5621 29.9856C31.6091 29.9856 31.6964 30.0797 31.7636 30.1939C32.1668 30.8725 33.1074 31.7392 33.7725 32.0348C34.1824 32.2095 35.0894 32.4044 35.5261 32.4044C35.9293 32.4044 36.6683 32.2297 37.0647 32.0483C37.488 31.8534 37.703 31.6586 37.9583 31.2689C38.133 30.9934 38.1532 30.9195 38.1465 30.3955C38.1465 29.9117 38.1196 29.7773 37.9852 29.5556C37.6089 28.9375 37.0983 28.615 35.0289 27.7012C32.8924 26.7539 31.9316 26.1895 31.1522 25.4303C30.5744 24.8659 30.4602 24.7114 30.0974 24.0059C29.6271 23.0989 29.5666 22.8033 29.5599 21.4528C29.5532 20.5055 29.5733 20.1964 29.6741 19.8739C29.8152 19.3901 30.2721 18.4562 30.4803 18.2211C30.9103 17.7172 31.0649 17.5626 31.3672 17.3141C32.281 16.5616 33.7054 16.0644 35.0693 16.0173C35.2238 16.0173 35.7344 16.0442 36.2114 16.0778C37.5821 16.192 38.516 16.528 39.4163 17.2469C40.0949 17.7844 41.1229 19.0475 41.0221 19.2155C40.9549 19.3162 38.2741 21.1034 38.0994 21.1572C37.9919 21.1908 37.918 21.1505 37.7702 20.9758C36.8564 19.8806 36.4869 19.6455 35.6 19.5917C34.9685 19.5514 34.6325 19.6253 34.2093 19.9075C33.7658 20.2031 33.5508 20.6533 33.5508 21.2781C33.5575 22.1919 33.9069 22.6219 35.1969 23.2601C36.03 23.67 36.7422 24.0059 36.796 24.0059C36.8766 24.0059 38.6033 24.8659 39.0535 25.1347C41.1497 26.3642 42.003 27.6273 42.2247 29.8042C42.386 31.4436 41.9224 32.9419 40.9146 34.0034Z" fill="white"/>
</g>
<defs>
<filter id="filter0_d_557_1655" x="-0.474609" y="0.355957" width="53" height="51" filterUnits="userSpaceOnUse" color-interpolation-filters="sRGB">
<feFlood flood-opacity="0" result="BackgroundImageFix"/>
<feColorMatrix in="SourceAlpha" type="matrix" values="0 0 0 0 0 0 0 0 0 0 0 0 0 0 0 0 0 0 127 0" result="hardAlpha"/>
<feOffset dy="4"/>
<feGaussianBlur stdDeviation="2"/>
<feComposite in2="hardAlpha" operator="out"/>
<feColorMatrix type="matrix" values="0 0 0 0 0 0 0 0 0 0 0 0 0 0 0 0 0 0 0.25 0"/>
<feBlend mode="normal" in2="BackgroundImageFix" result="effect1_dropShadow_557_1655"/>
<feBlend mode="normal" in="SourceGraphic" in2="effect1_dropShadow_557_1655" result="shape"/>
</filter>
</defs>
</svg>
